<svg width="53" height="53" viewBox="0 0 53 53" fill="none" xmlns="http://www.w3.org/2000/svg">
<path fill-rule="evenodd" clip-rule="evenodd" d="M19.5692 0H14.4499C4.58427 0 0 5.76492 0 16.5054V36.4946C0 46.7357 6.26332 53 16.507 53H36.4463C46.6703 53 52.9299 46.7321 52.9299 36.4946L53 23.772C53 13.0452 48.523 7.79436 38.5033 7.79436H31.2569C30.0241 7.7919 28.86 7.20911 28.1161 6.21993L25.7794 3.10808C24.3144 1.15218 22.0131 0 19.5692 0ZM14.4499 3.84639H19.5692C20.804 3.84639 21.9668 4.42856 22.7078 5.41776L25.0467 8.53267C26.5157 10.4859 28.8127 11.6359 31.2531 11.6407L38.5033 11.6408C46.2549 11.6408 49.1587 15.0465 49.1587 23.7614L49.0886 36.484C49.0886 44.6078 44.5488 49.1536 36.4463 49.1536H16.507C8.38381 49.1536 3.84131 44.6104 3.84131 36.4946V16.5054C3.84131 7.72136 6.92268 3.84639 14.4499 3.84639ZM40.658 33.2411C40.658 32.1789 39.7981 31.3179 38.7374 31.3179H14.1697L13.9091 31.3354C12.9716 31.4628 12.249 32.2674 12.249 33.2411C12.249 34.3032 13.1089 35.1643 14.1697 35.1643H38.7374L38.998 35.1467C39.9354 35.0194 40.658 34.2147 40.658 33.2411Z" fill="white"/>
</svg>
