<svg width="53" height="53" viewBox="0 0 53 53" fill="none" xmlns="http://www.w3.org/2000/svg">
<path fill-rule="evenodd" clip-rule="evenodd" d="M49.7614 14.9978C51.6304 16.3733 52.7768 18.4167 52.9721 20.6402L53 21.1729V42.664C53 48.203 48.3946 52.7085 42.6232 53H37.0721C34.4193 52.9496 32.2742 50.9884 32.0789 48.5237L32.0511 48.15V40.5729C32.0511 39.7487 31.4067 39.0622 30.5447 38.9271L30.2937 38.9006H22.843C21.9532 38.9271 21.2279 39.5366 21.1163 40.3317L21.0884 40.5729V48.1262C21.0884 48.2825 21.0577 48.468 21.0326 48.6006L21.0047 48.6562L20.9741 48.8391C20.6421 51.0945 18.6895 52.8145 16.2626 52.9761L15.9 53H10.9068C5.07684 53 0.306842 48.6562 0 43.194V21.1729C0.0251053 18.9176 1.06 16.8239 2.78947 15.3662L20.1679 2.08838C23.7105 -0.58574 28.6758 -0.69175 32.3272 1.77035L32.7763 2.08838L49.7614 14.9978ZM49.0919 43.088L49.1226 42.6639V21.1968C49.0919 20.0598 48.5926 18.9971 47.7278 18.2046L47.3652 17.9105L30.3494 4.97716C28.2294 3.3605 25.2168 3.28364 22.9852 4.68563L22.564 4.97716L5.60399 17.9661C4.63046 18.6525 4.04467 19.6861 3.9052 20.7727L3.87451 21.1968V42.6639C3.87451 46.1888 6.77557 49.0776 10.4605 49.2896H15.8999C16.5136 49.2896 17.0436 48.8947 17.1245 48.3382L17.1831 47.8611L17.211 47.726V40.5729C17.211 37.7371 19.4984 35.4314 22.4273 35.2167H30.2936C33.2756 35.2167 35.7024 37.3926 35.9284 40.1753V48.15C35.9284 48.7066 36.3468 49.1862 36.9047 49.2896H42.0903C45.8282 49.2896 48.8687 46.5625 49.0919 43.088Z" fill="white"/>
</svg>
