<svg width="53" height="53" viewBox="0 0 53 53" fill="none" xmlns="http://www.w3.org/2000/svg">
<path d="M26.5 19.875V28.7083M26.5 37.5417H26.522M22.7237 8.52416L4.01912 39.75C3.63348 40.4178 3.42942 41.175 3.42726 41.9462C3.4251 42.7174 3.62491 43.4757 4.00681 44.1457C4.38871 44.8157 4.93939 45.3741 5.60406 45.7652C6.26873 46.1563 7.02422 46.3665 7.79537 46.375H45.2045C45.9757 46.3665 46.7312 46.1563 47.3958 45.7652C48.0605 45.3741 48.6112 44.8157 48.9931 44.1457C49.375 43.4757 49.5748 42.7174 49.5726 41.9462C49.5705 41.175 49.3664 40.4178 48.9808 39.75L30.2762 8.52416C29.8825 7.87515 29.3282 7.33855 28.6668 6.96615C28.0053 6.59374 27.259 6.3981 26.5 6.3981C25.7409 6.3981 24.9946 6.59374 24.3331 6.96615C23.6717 7.33855 23.1174 7.87515 22.7237 8.52416Z" stroke="white" stroke-width="4" stroke-linecap="round" stroke-linejoin="round"/>
</svg>
