<svg width="53" height="52" viewBox="0 0 53 52" fill="none" xmlns="http://www.w3.org/2000/svg">
<g clip-path="url(#clip0_22_1610)">
<path d="M50.5708 19.3892C49.0792 18.6482 47.2877 18.8026 45.951 19.7876L41.9031 22.7342C41.3292 17.2061 36.5845 12.9986 30.9167 12.9916H30.729L21.6263 4.06943C20.3875 2.84642 18.7005 2.16099 16.9424 2.16637H2.2083C0.988678 2.16637 0 3.13576 0 4.33147C0 5.52717 0.988678 6.49647 2.2083 6.49647H16.9423C17.5277 6.49799 18.0887 6.72593 18.5036 7.13086L24.4816 12.9916H11.0417C4.9466 12.9988 0.00734961 17.8412 0 23.8168V41.1371C0.00734961 47.1126 4.9466 51.9551 11.0417 51.9622H30.9167C36.5846 51.9552 41.3292 47.7477 41.9031 42.2195L45.9444 45.1726C47.8957 46.6075 50.6642 46.2198 52.1277 44.3067C52.701 43.5572 53.011 42.6455 53.011 41.7086V23.2603C53.0168 21.6194 52.0704 20.1181 50.5708 19.3892ZM37.5417 41.137C37.5417 44.7241 34.5756 47.6321 30.9167 47.6321H11.0417C7.38284 47.6321 4.4167 44.7241 4.4167 41.137V23.8168C4.4167 20.2296 7.38284 17.3217 11.0417 17.3217H30.9167C34.5756 17.3217 37.5417 20.2296 37.5417 23.8168V41.137ZM48.5833 41.6934L41.9583 36.8524V28.1014L48.5833 23.2604V41.6934Z" fill="white"/>
</g>
<defs>
<clipPath id="clip0_22_1610">
<rect width="53" height="51.9608" fill="white"/>
</clipPath>
</defs>
</svg>
