<svg width="54" height="54" viewBox="0 0 54 54" fill="none" xmlns="http://www.w3.org/2000/svg">
<g clip-path="url(#clip0_21_1605)">
<path d="M27.3486 0.491089C22.1074 0.491089 16.9839 2.04529 12.626 4.95714C8.26813 7.869 4.87156 12.0077 2.86584 16.85C0.860115 21.6922 0.335326 27.0205 1.35783 32.161C2.38034 37.3015 4.90422 42.0233 8.61031 45.7294C12.3164 49.4355 17.0383 51.9594 22.1788 52.9819C27.3192 54.0044 32.6475 53.4796 37.4898 51.4739C42.332 49.4682 46.4707 46.0716 49.3826 41.7137C52.2944 37.3558 53.8486 32.2323 53.8486 26.9911C53.841 19.9652 51.0466 13.2292 46.0786 8.26115C41.1105 3.29308 34.3745 0.498688 27.3486 0.491089V0.491089ZM49.432 26.9911C49.4346 31.3188 48.1577 35.5506 45.7617 39.1546L43.1294 36.5201C42.923 36.3131 42.807 36.0328 42.807 35.7405V33.6161C42.807 31.859 42.109 30.1739 40.8666 28.9315C39.6241 27.6891 37.939 26.9911 36.182 26.9911H29.557C28.9713 26.9911 28.4096 26.7584 27.9955 26.3443C27.5813 25.9301 27.3486 25.3684 27.3486 24.7828V23.6786C27.3486 23.3857 27.465 23.1049 27.672 22.8978C27.8791 22.6908 28.16 22.5744 28.4528 22.5744C29.917 22.5744 31.3213 21.9928 32.3566 20.9574C33.392 19.9221 33.9736 18.5178 33.9736 17.0536V14.8453C33.9736 14.5524 34.09 14.2716 34.297 14.0645C34.5041 13.8574 34.785 13.7411 35.0778 13.7411H38.1231C39.5859 13.7369 40.988 13.1561 42.0252 12.1246L42.8578 11.292C44.9406 13.3416 46.5947 15.7852 47.7234 18.4806C48.8521 21.1759 49.4329 24.069 49.432 26.9911ZM5.37352 29.1177L12.3474 36.0916C12.9611 36.7093 13.6914 37.1989 14.4958 37.5322C15.3002 37.8654 16.1628 38.0355 17.0335 38.0328H22.932C23.5177 38.0328 24.0794 38.2654 24.4935 38.6796C24.9076 39.0937 25.1403 39.6554 25.1403 40.2411V48.9618C20.0616 48.4434 15.3185 46.1841 11.7157 42.5672C8.11287 38.9503 5.87212 34.1984 5.37352 29.1177ZM29.557 48.9618V40.2411C29.557 38.484 28.859 36.7989 27.6166 35.5565C26.3741 34.3141 24.689 33.6161 22.932 33.6161H17.0335C16.7432 33.6163 16.4556 33.5593 16.1873 33.4483C15.9191 33.3372 15.6753 33.1744 15.47 32.969L5.62527 23.1243C6.25724 19.5318 7.77119 16.1524 10.0313 13.2892C12.2914 10.4261 15.2269 8.16882 18.5745 6.71994C21.9221 5.27107 25.577 4.67591 29.2113 4.98788C32.8456 5.29984 36.3456 6.50916 39.3973 8.50734L38.9026 9.00201C38.6948 9.207 38.415 9.3227 38.1231 9.32442H35.0778C33.6136 9.32442 32.2093 9.90608 31.174 10.9414C30.1386 11.9768 29.557 13.381 29.557 14.8453V17.0536C29.557 17.3464 29.4406 17.6273 29.2336 17.8344C29.0265 18.0414 28.7457 18.1578 28.4528 18.1578C26.9886 18.1578 25.5844 18.7394 24.549 19.7748C23.5136 20.8101 22.932 22.2144 22.932 23.6786V24.7828C22.932 26.5398 23.63 28.2249 24.8724 29.4673C26.1148 30.7098 27.7999 31.4078 29.557 31.4078H36.182C36.7677 31.4078 37.3294 31.6404 37.7435 32.0546C38.1576 32.4687 38.3903 33.0304 38.3903 33.6161V35.7405C38.3945 37.2033 38.9753 38.6054 40.0068 39.6426L42.9594 42.5952C39.363 46.204 34.6265 48.454 29.557 48.9618Z" fill="white"/>
</g>
<defs>
<clipPath id="clip0_21_1605">
<rect width="53" height="53" fill="white" transform="translate(0.848633 0.491089)"/>
</clipPath>
</defs>
</svg>
