<svg width="53" height="53" viewBox="0 0 53 53" fill="none" xmlns="http://www.w3.org/2000/svg">
<g clip-path="url(#clip0_22_1632)">
<path d="M50.7917 52.9984C50.2061 52.9984 49.6444 52.7658 49.2302 52.3516C48.8161 51.9375 48.5834 51.3758 48.5834 50.7901C48.5799 47.2771 47.1828 43.9089 44.6987 41.4248C42.2146 38.9407 38.8465 37.5436 35.3334 37.5401H22.4588V41.0425C22.4586 41.9159 22.1995 42.7697 21.7142 43.4958C21.2289 44.222 20.5391 44.7879 19.7322 45.1221C18.9253 45.4563 18.0374 45.5438 17.1808 45.3734C16.3241 45.2031 15.5373 44.7826 14.9196 44.1651L1.93678 31.1823C0.694785 29.94 -0.00292969 28.2552 -0.00292969 26.4985C-0.00292969 24.7418 0.694785 23.057 1.93678 21.8146L14.9196 8.83184C15.5373 8.21435 16.3241 7.79385 17.1808 7.62351C18.0374 7.45317 18.9253 7.54063 19.7322 7.87484C20.5391 8.20905 21.2289 8.775 21.7142 9.50114C22.1995 10.2273 22.4586 11.081 22.4588 11.9544V15.4568H33.1251C38.3945 15.4627 43.4464 17.5585 47.1724 21.2845C50.8984 25.0105 52.9942 30.0624 53.0001 35.3318V50.7901C53.0001 51.3758 52.7674 51.9375 52.3533 52.3516C51.9391 52.7658 51.3774 52.9984 50.7917 52.9984ZM18.0422 11.9544L5.05936 24.9372C4.64537 25.3513 4.41279 25.9129 4.41279 26.4985C4.41279 27.084 4.64537 27.6456 5.05936 28.0598L18.0422 41.0425V35.3318C18.0422 34.7461 18.2748 34.1844 18.689 33.7703C19.1031 33.3561 19.6648 33.1235 20.2505 33.1235H35.3334C37.8412 33.1227 40.3202 33.6569 42.6051 34.6905C44.89 35.724 46.9281 37.233 48.5834 39.1169V35.3318C48.5787 31.2334 46.9486 27.3043 44.0506 24.4063C41.1526 21.5083 37.2234 19.8782 33.1251 19.8735H20.2505C19.6648 19.8735 19.1031 19.6408 18.689 19.2267C18.2748 18.8125 18.0422 18.2508 18.0422 17.6652V11.9544Z" fill="white"/>
</g>
<defs>
<clipPath id="clip0_22_1632">
<rect width="53" height="53" fill="white"/>
</clipPath>
</defs>
</svg>
