<svg width="53" height="53" viewBox="0 0 53 53" fill="none" xmlns="http://www.w3.org/2000/svg">
<path fill-rule="evenodd" clip-rule="evenodd" d="M28.2186 0H24.7735C22.8332 0 20.973 0.719608 19.6043 1.99962C18.3912 3.13416 17.6491 4.62998 17.506 6.22168L17.4823 6.73579C17.4558 8.40983 16.0323 9.71581 14.2849 9.71564C13.8887 9.71171 13.4771 9.6258 13.0982 9.46394L12.7266 9.27954C9.29328 7.44694 4.82937 8.56947 2.81508 11.8234L1.00392 14.5934C-0.921942 17.7033 0.0279153 21.6101 3.13672 23.6223L3.56908 23.8805C4.63468 24.4552 5.24384 25.4372 5.24384 26.5C5.24384 27.4774 4.72791 28.3912 3.86747 28.9455L3.57373 29.1168C0.352907 30.8493 -0.916139 34.673 0.702853 37.8538L0.939468 38.2771L2.7173 41.1343C3.64136 42.687 5.22486 43.8566 7.09768 44.3521C8.75764 44.7912 10.5291 44.6697 12.0997 44.0123L12.5963 43.7815C13.4321 43.3317 14.2956 43.2239 15.1061 43.4258C15.9165 43.6276 16.6067 44.1224 17.0233 44.8002C17.253 45.1609 17.3878 45.5329 17.436 45.9183L17.4597 46.3097C17.4556 49.9505 20.7319 53 24.7735 53H28.2194C32.0357 53 35.2031 50.2714 35.5128 46.7498L35.5354 46.295C35.5333 45.4153 35.8676 44.6588 36.466 44.1019C37.0644 43.5449 37.8772 43.2337 38.7234 43.2375C39.1124 43.2477 39.5398 43.3382 39.9358 43.5031L40.3155 43.6851C43.5187 45.4061 47.7162 44.522 49.8781 41.6285L50.1555 41.2261L51.9955 38.3731C52.9862 36.7908 53.2544 34.9316 52.7542 33.1859C52.3109 31.6387 51.2947 30.2887 49.8879 29.3729L49.4222 29.0951C48.6128 28.6596 48.0793 28.0126 47.8618 27.2536C47.6443 26.4946 47.7609 25.6862 48.1858 25.0075C48.421 24.6253 48.7339 24.3073 49.1091 24.0638L49.8267 23.644C52.7331 21.8076 53.8215 18.1928 52.2917 15.1538L52.133 14.8579C52.0988 14.7807 52.059 14.7054 52.0139 14.6326L50.3035 11.8701C48.4005 8.79583 44.2855 7.60278 40.8545 9.10407L40.3976 9.32372C39.5777 9.77022 38.7119 9.88308 37.8969 9.68612C37.0819 9.48915 36.3845 8.99853 35.9585 8.32244C35.7399 7.97958 35.6051 7.6076 35.557 7.22218L35.5333 6.83079C35.5933 5.16665 34.8474 3.38354 33.4689 2.06358C32.0903 0.743628 30.1964 -0.000756776 28.2186 0ZM24.7735 3.83651H28.2195C29.0841 3.83618 29.9112 4.16128 30.5133 4.73775C31.1154 5.31422 31.4411 6.09296 31.4163 6.89659L31.4529 7.56453C31.5776 8.58558 31.8996 9.47385 32.4084 10.2718C33.3825 11.8181 34.9865 12.9465 36.861 13.3995C38.7355 13.8525 40.7267 13.5929 42.3954 12.678L42.6831 12.5415L42.9927 12.4261C44.355 12.0006 45.9606 12.5391 46.7321 13.7855L48.3634 16.4227L48.3988 16.497L48.596 16.8509C49.2561 18.1659 48.7045 19.8292 47.2761 20.6068L46.8278 20.8696C45.8768 21.4844 45.1474 22.226 44.6166 23.0884C43.6471 24.6372 43.3789 26.4964 43.8791 28.2421C44.3337 29.8291 45.3893 31.2031 46.8415 32.1167L47.6011 32.5636C48.1369 32.9148 48.5788 33.5017 48.7715 34.1744C48.989 34.9334 48.8723 35.7418 48.4475 36.4206L46.65 39.2086L46.4478 39.5028C45.6161 40.6134 43.9752 41.0258 42.5918 40.4606L41.7104 40.0416C40.7274 39.6299 39.7657 39.4261 38.7885 39.4017C36.797 39.3923 34.9277 40.1081 33.5514 41.3891C32.1751 42.67 31.4061 44.4099 31.4155 46.2215L31.3997 46.5105C31.2697 47.9712 29.8857 49.1635 28.2195 49.1635H24.7735C23.1261 49.1635 21.7698 48.0033 21.5963 46.5129L21.5401 45.5759C21.4154 44.5549 21.0934 43.6666 20.5846 42.8686C19.6387 41.3292 18.044 40.186 16.1716 39.7197C14.2993 39.2533 12.3043 39.5024 10.6302 40.4116L10.3269 40.5498C9.72326 40.8004 8.94952 40.8535 8.22458 40.6617C7.40665 40.4453 6.71509 39.9345 6.30291 39.2423L4.54764 36.424L4.39062 36.1416C3.72572 34.8316 4.27779 33.1681 5.70837 32.3978L6.14299 32.1435C8.1847 30.8302 9.36581 28.7381 9.36581 26.5C9.36581 24.2288 8.15078 22.1186 6.14789 20.8582L5.42064 20.4295C4.13561 19.5958 3.72054 17.8887 4.55045 16.5481L6.36163 13.778C7.26635 12.3176 9.21589 11.8274 10.7448 12.6428L11.2814 12.9062C12.2836 13.3373 13.2664 13.5424 14.2633 13.552C18.1308 13.5525 21.2932 10.7878 21.5818 7.26498L21.6192 6.45702C21.6759 5.84962 21.9985 5.1992 22.526 4.70593C23.121 4.14939 23.9299 3.83651 24.7735 3.83651ZM26.5091 17.8393C21.3701 17.8393 17.2041 21.7169 17.2041 26.5C17.2041 31.2832 21.3701 35.1607 26.5091 35.1607C31.6481 35.1607 35.8141 31.2832 35.8141 26.5C35.8141 21.7169 31.6481 17.8393 26.5091 17.8393ZM26.5088 21.6758C29.3713 21.6758 31.6918 23.8357 31.6918 26.5C31.6918 29.1643 29.3713 31.3242 26.5088 31.3242C23.6462 31.3242 21.3257 29.1643 21.3257 26.5C21.3257 23.8357 23.6462 21.6758 26.5088 21.6758Z" fill="white"/>
</svg>
